<svg xmlns="http://www.w3.org/2000/svg" width="512" height="512" viewBox="0 0 512 512" class="logo-bower"><path fill="#00ACEE" d="M434.625 63.496c-67.822 0-118.4 71.68-95.018 123.167 95.99 0 56.91-88.605 95.018-123.167z"/><path fill="#FFCC2F" d="M456.534 256.992c0-22.79-108.627-34.13-169.14-37.663-60.51-3.534-281.59 38.388-255.42 93.812C58.15 368.568 124.557 427.5 199.29 427.5c38.716 0 83.584-27.284 86.053-77.38 44.78-14.957 171.194-15.75 171.194-93.128z"/><path fill="#2BAF2B" d="M400.98 272.143c7.02 7.104-15.22 26.295-34.605 17.262 8.73 19.688-29.676 36.064-48.336 22.026 1.997 15.866-36.123 24.997-48.286 7.293 3.136 8.44 5.757 14.898 8.23 20.21-.03-.09-.047-.15-.047-.15 6.324 8.28 14.93 14.94 52.394 14.94 57.728 0 150.97-43.85 150.97-76.04 0-26.643-9.99-29.14-27.195-27.198-17.208 1.942-107.17 11.29-126.306 7.534 10.382 2.21 62.74 12.24 73.18 14.123z"/><path fill="#EF5734" d="M198.51 48.82c-110.382 0-221.18 109.72-168.45 261.056 35.816 21.53 83.575 12.995 94.277 1.532 16.178 5.17 30.612 7.347 43.513 7.347 67.047 0 124.34-71.235 124.34-160.257 0-91.302-60.26-109.678-93.68-109.678z"/><path fill="#FFCC2F" d="M153.308 146.522c0 24.632 19.97 44.603 44.603 44.603 24.634 0 44.604-19.97 44.604-44.603 0-24.633-19.97-44.603-44.603-44.603-24.633 0-44.602 19.97-44.602 44.602z"/><path fill="#543729" d="M171.207 146.522c0 14.747 11.956 26.704 26.704 26.704 14.75 0 26.704-11.957 26.704-26.704 0-14.748-11.955-26.704-26.703-26.704-14.747 0-26.703 11.956-26.703 26.704z"/><ellipse fill="#FFF" cx="197.91" cy="134.674" rx="15.56" ry="9.675"/><path fill="#CECECE" d="M289.4 123.675c-20.274 11.807-19.603 50.03-10.594 68.68 17.445-6.465 41.752-19.29 45.527-21.584 3.773-2.292-2.088-10.988 12.56-10.988 20.314 0 38.683 6.348 43.955 8.634-3.337-6.87-45.09-44.74-91.447-44.74z"/><path fill="#543729" d="M502.214 250.797c-26.335-25.305-158.017-41.1-199.568-45.698 2.014-4.755 3.726-9.67 5.142-14.732 5.665-2.48 11.776-4.79 18.1-6.716.77 2.272 4.398 10.98 6.466 15.112 83.553 2.305 87.844-62.09 91.24-79.732 3.323-17.25 3.154-33.917 31.812-64.388C412.71 42.2 351.31 73.928 330.742 121.15c-7.728-2.896-15.474-5.035-23.136-6.357-5.488-22.146-34.077-83.845-109.097-83.845-48.586 0-97.582 20.063-134.422 55.045-19.852 18.85-35.445 41.234-46.344 66.53C5.97 179.85 0 209.94 0 241.957 0 353.462 76.126 451.18 119.14 451.18c18.783 0 34.942-14.067 38.735-26.675 3.18 8.645 12.938 35.522 16.142 42.364 4.737 10.116 26.642 18.87 36.23 8.372 12.325 6.85 34.942 10.973 47.27-7.29 23.738 5.023 44.727-9.134 45.183-26.025 11.65-.622 17.363-16.978 14.82-30-1.876-9.592-21.905-44-29.72-55.878 15.468 12.58 54.644 16.14 59.4.007 24.937 19.57 63.798 9.3 66.88-6.62 30.3 7.875 65.054-9.416 59.348-30.358 48.674-3.37 42.444-55.16 28.786-68.283zm-126.758-85.84c-12.82-5.032-29.084-8.216-40.482-8.216-16.164 0-26.01 9.16-41.218 9.16-3.193 0-10.812.017-16.926-2.16 4.02 4.216 9.025 6.504 18.725 6.504 5.793 0 17.263-2.958 26.553-5.752.13 1.956.334 3.898.61 5.826-17.402 4.16-35.664 15.23-40.95 18.105-11.754-25.958-1.65-50.505 7.698-61.837 41.865.1 75.678 28.847 85.99 38.372zm18.1-1.956l-6.405-5.978c-6.574-6.16-13.43-11.73-20.468-16.678 10.483-20.8 23.658-43.514 40.298-57.565-18.314 7.38-36.397 29.444-47.09 53.03-5.447-3.465-10.98-6.555-16.56-9.256 14.913-31.834 49.568-58.42 87.762-60.497-25.583 23.2-15.978 69.506-37.535 96.944zm-52.55 21.7c-2.82-6.114-5.677-16.27-5.328-22.24 4.753-.11 13.868 1.67 15.335 2.017-.557 2.803-.855 8.944-.866 9.74.903-1.557 3.41-6.923 4.43-9.03 9.127 1.744 21.126 4.66 28.16 7.938-8.26 5.348-22.298 11.168-41.73 11.575zm-57.035-71.79c-33.38 33.833-20.198 76.63-8.045 95.977-17.29 28.76-51.28 48.437-90.765 57.39 44.328 0 70.397-11.41 85.563-22.587 9.677-7.13 14.928-14.17 17.608-18.088 65.72 4.25 169.784 25.423 179.936 32.28 4.074 2.754 8.278 8.843 8.895 14.67-49.386-6.915-138.406-14.19-161.718-15.425 16.55 2.347 137.24 25.202 158.163 30.552-6.368 10.383-20.872 17.714-42.733 12.62 11.812 16.093-11.125 35.4-43.07 24.766 7.03 15.8-21.414 30.02-53.742 13.555.41 15.806-40.105 17.627-56.123.163.306 2.082 2.207 6.066 3.028 7.81-5.162 46.15-42.96 74.782-81.677 74.782-94.794 0-177.375-76.99-177.375-179.417 0-108.292 80.03-189.096 176.597-189.096 55.332 0 80.326 43.55 85.46 60.05z"/></svg>