<svg xmlns="http://www.w3.org/2000/svg" xmlns:xlink="http://www.w3.org/1999/xlink" width="961.063" height="429"><defs><linearGradient x1="464.315" y1="532.267" x2="464.315" y2="108.459" id="a" gradientUnits="userSpaceOnUse" gradientTransform="matrix(1 0 0 -1 .14 777.638)"><stop offset=".15" stop-color="#2a4f84"/><stop offset=".388" stop-color="#294e82"/><stop offset="1" stop-color="#172e4e"/></linearGradient><linearGradient x1="464.315" y1="532.267" x2="464.315" y2="108.459" id="b" xlink:href="#a" gradientUnits="userSpaceOnUse" gradientTransform="matrix(1 0 0 -1 -110.82 852.735)"/></defs><path d="M778.763 662.534c0 44.958-36.784 81.742-81.742 81.742H9.97c-44.957 0-81.742-36.784-81.742-81.742V402.21c0-44.958 36.785-81.742 81.743-81.742h687.05c44.958 0 81.742 36.784 81.742 81.742v260.324z" fill="url(#b)" transform="translate(130.53 -317.844)"/><path d="M765.568 208.967c35.91 12.563 53.856 34.088 53.856 64.543 0 20.046-7.443 35.957-22.296 47.725-14.838 11.776-36.005 19.084-63.557 19.084-27.55 0-53.036-7.984-76.51-21.09.255-6.95 2.092-14.574 5.464-22.85 3.372-8.278 7.363-14.854 11.936-19.657 21.573 11.21 40.346 16.826 56.28 16.826 7.532 0 13.36-1.265 17.415-3.81 4.063-2.536 6.083-5.94 6.083-10.217 0-8.04-6.226-14.05-18.638-18.058l-22.296-8.42c-33.73-12.294-50.596-32.324-50.596-60.147 0-20.316 7.085-36.418 21.255-48.33 14.17-11.895 33.27-22.137 57.283-22.137 11.88 0 24.96 1.67 39.272 5.01 14.297 3.35 26.042 11.595 35.218 16.126.54 7.49-.962 15.712-4.452 24.665-3.515 8.962-7.824 15.307-12.97 19.053-22.684-10.162-41.56-15.243-56.685-15.243-5.416 0-9.495 1.2-12.358 3.618-2.83 2.41-4.223 5.478-4.223 9.224 0 6.417 5.12 11.49 15.385 15.235l25.133 8.85zM586.213 208.967c35.91 12.563 53.848 34.088 53.848 64.543 0 20.046-7.442 35.957-22.27 47.725-14.854 11.776-36.03 19.084-63.573 19.084-27.528 0-53.045-7.984-76.51-21.09.254-6.95 2.09-14.574 5.47-22.85 3.372-8.278 7.347-14.854 11.936-19.657 21.597 11.21 40.362 16.826 56.29 16.826 7.537 0 13.365-1.265 17.405-3.81 4.048-2.536 6.083-5.94 6.083-10.217 0-8.04-6.225-14.05-18.637-18.058l-22.28-8.42c-33.74-12.294-50.612-32.324-50.612-60.147 0-20.316 7.086-36.418 21.27-48.33 14.163-11.895 33.254-22.137 57.268-22.137 11.872 0 24.984 1.67 39.265 5.01 14.313 3.35 26.042 11.595 35.225 16.126.54 7.49-.962 15.712-4.452 24.665-3.507 8.962-7.824 15.307-12.96 19.053-22.695-10.162-41.572-15.243-56.703-15.243-5.407 0-9.502 1.2-12.35 3.618-2.822 2.41-4.23 5.478-4.23 9.224 0 6.417 5.13 11.49 15.395 15.235l25.125 8.85zM455.418 211.797c0-12.293-1.956-23.656-5.868-34.09-3.904-10.43-9.51-19.377-16.794-26.867-7.29-7.49-16.125-13.367-26.51-17.645-10.4-4.27-22.074-10.71-35.027-10.71-15.39 0-28.818 6.965-40.284 12.316-11.465 5.345-20.912 12.692-28.33 22.05-7.436 9.367-12.97 20.39-16.612 33.087-3.642 12.7-5.463 26.534-5.463 41.5 0 15.49 1.48 29.817 4.454 42.913 2.966 13.08 8.03 24.435 15.18 34.073 7.156 9.62 16.467 17.104 27.94 22.44 11.474 5.343 25.715 9.446 42.716 9.446 31.305 0 57.752-9.066 79.348-24.293-2.14-15.49-7.657-27.807-16.523-36.896-11.03 4.143-20.786 7.11-29.246 8.93-8.468 1.8-15.935 2.705-22.383 2.705-12.906 0-22.193-3.284-27.83-9.915-5.63-6.608-8.72-14.424-9.267-26.296h105.265c3.477-11.243 5.234-26.438 5.234-42.747zm-110.9 2.776c.803-13.645 3.293-28.244 7.436-34.255 4.15-6.02 10.504-9.025 19.083-9.025 8.835 0 15.466 3.197 19.88 9.614 4.42 6.417 6.63 19.346 6.63 29.237l.008 4.43H344.52z" fill="#f6f6f6"/><path d="M930.485 241.25c-11.442 9.995-18.082 24.38-18.082 43.185v70.037c0 23.282-7.157 40.99-23.322 53.164-16.15 12.158-34.98 18.177-56.472 18.757l-12.737-.096v-34.9c11.228-3.275 15.84-7.083 20.308-11.41 8.095-7.314 14.297-19.218 14.297-35.75v-56.542c.302-19.22 1.78-34.28 8.778-45.157 7.022-10.878 20.69-20.388 41.006-28.602-22.44-10.273-37.508-23.688-45.19-40.235-4.516-9.827-4.604-23.09-4.604-39.773V82.075c0-17.128-5.606-29.126-12.5-35.973-4.484-4.47-9.7-8.04-22.113-10.734V2.608c15.18.158 22.845-.016 31.687 0 13.613-.112 25.016 7.33 34.94 15.083 10.806 8.5 18.486 19.992 22.987 34.455 2.56 8.357 2.926 16.34 2.926 23.942v59.97c0 21.183 6.258 36.928 16.953 47.21 6.028 5.963 14.536 11.417 29.143 16.34v27.09c-12.944 3.58-21.07 8.43-28.005 14.553zM125.285 2.625v.047c-4.348-.024-8.285-.04-11.433-.032-13.622-.12-25.024 7.324-34.94 15.084-10.82 8.5-20.084 19.593-22.986 34.454-1.653 8.715-1.303 16.332-1.303 23.942v59.97c0 21.176-7.88 36.912-18.567 47.21-6.02 5.963-18.87 11.41-33.485 16.33v27.09c12.954 3.572 25.423 8.406 32.34 14.545 11.45 10.003 19.703 24.396 19.703 43.2v70.037c0 23.267 5.55 40.99 21.7 53.148 16.15 12.15 34.97 18.193 56.463 18.78l14.384-.095v-34.923c-11.22-3.284-17.452-7.093-21.945-11.403-8.087-7.325-12.667-19.22-12.667-35.743v-56.55c-.31-19.235-3.41-34.28-10.416-45.166-7.005-10.86-20.674-20.387-41.014-28.593 22.448-10.28 37.508-23.688 45.19-40.227 4.524-9.836 6.24-23.1 6.24-39.78V82.096c0-17.128 3.976-29.126 10.863-35.98 3.738-3.72 10.385-6.783 19.618-9.263l14.6.102V2.622h-32.34v.003h-.003z" fill="#f6f6f6" stroke="#404040" stroke-width="5.151" stroke-miterlimit="10"/><path d="M259.882 286.764H248.95c-11.887 0-16.364-6.25-16.364-18.805V37.213c0-13.875-4.008-23.616-9.138-29.23-5.13-5.597-14.034-5.54-26.717-5.54h-24.69l-2.91-.057v.238l-.023 34.343v242.156c0 19.258 4.326 33.35 12.022 42.318 7.704 8.953 20.72 13.422 39.073 13.422 12.69 0 27.13-1.336 43.32-4.016.81-2.704 1.217-8.492 1.217-17.374 0-8.906-1.62-17.788-4.858-26.71z" fill="#f6f6f6"/></svg>